<svg xmlns="http://www.w3.org/2000/svg" viewBox="0 0 78.94 70.96"><defs><style>.cls-1{fill:#fd5d60;}</style></defs><title>Asset 3</title><g id="Layer_2" data-name="Layer 2"><g id="Layer_1-2" data-name="Layer 1"><path class="cls-1" d="M71.57,7.46a24.08,24.08,0,0,0-32-1.63A23.94,23.94,0,0,0,7.45,41.27l7.64,7.64.09.09a6,6,0,0,0,4.29,1.72,1.63,1.63,0,0,0,.69-.09,6.07,6.07,0,0,0,1.71,5,6,6,0,0,0,4.21,1.71,1.77,1.77,0,0,0,.68-.08c0,.25-.08.51-.08.69a5.57,5.57,0,0,0,1.8,4.2,5.92,5.92,0,0,0,4.21,1.72,1.58,1.58,0,0,0,.68-.09c0,.26-.08.52-.08.69a5.91,5.91,0,0,0,1.8,4.29,6,6,0,0,0,4.29,1.72,6.31,6.31,0,0,0,4.29-1.72L71.48,41a23.69,23.69,0,0,0,7-16.91A22.8,22.8,0,0,0,71.57,7.46M9.43,39.56h0a21.38,21.38,0,0,1,28.23-32c-1.11,1-14.76,14.68-17.08,17-1.63,1.63-1.45,3.95.43,5.83a7.88,7.88,0,0,0,2.75,1.72l-8.5,8.5a6,6,0,0,0-1.63,3.17Zm60.33,0h0L42,67.37a3.42,3.42,0,0,1-4.89,0,3.76,3.76,0,0,1-.94-2.49,3.12,3.12,0,0,1,1-2.41L50.88,48.74a1.27,1.27,0,0,0-1.8-1.8L35.35,60.67a3.48,3.48,0,0,1-5.93-2.4,3.16,3.16,0,0,1,1-2.41L44.19,42.13a1.28,1.28,0,0,0-1.81-1.8L28.65,54.06a3.35,3.35,0,0,1-2.4,1,3.09,3.09,0,0,1-2.4-1,3.41,3.41,0,0,1,0-4.89L37.58,35.44a1.25,1.25,0,0,0,0-1.8,1.23,1.23,0,0,0-1.8,0L22,47.37a3.42,3.42,0,0,1-4.89,0h.09l-.09-.09a3.38,3.38,0,0,1,.09-4.8l9.44-9.7a8.77,8.77,0,0,0,6.69-2.66l6.53-6.53a14.86,14.86,0,0,0,7.81,4,10.12,10.12,0,0,0,8.58-3.09,1.25,1.25,0,0,0,0-1.8,1.23,1.23,0,0,0-1.8,0,7.39,7.39,0,0,1-6.44,2.4,13.74,13.74,0,0,1-7.3-4.21,1.25,1.25,0,0,0-1.8,0l-7.38,7.38a6.09,6.09,0,0,1-5.15,1.89h-.34a5.81,5.81,0,0,1-3.35-1.63c-.52-.6-1-1.46-.34-2.14C24.79,24,39.47,9.35,39.47,9.35a21.37,21.37,0,0,1,36.47,15.1,20.84,20.84,0,0,1-6.18,15.11"/><path class="cls-1" d="M39.38,71a6.5,6.5,0,0,1-6.59-6.52v-.09a6.47,6.47,0,0,1-4.66-1.87,6,6,0,0,1-1.95-4.56v-.1h-.1a6.42,6.42,0,0,1-6.46-6.61,6.52,6.52,0,0,1-4.8-1.86L7.1,41.63A24.54,24.54,0,0,1,0,24.36,24.27,24.27,0,0,1,7.18,7.1,24.56,24.56,0,0,1,39.55,5.19,24.56,24.56,0,0,1,71.92,7.1h0a23.34,23.34,0,0,1,7,17,24.22,24.22,0,0,1-7.1,17.25L44,69.09A6.82,6.82,0,0,1,39.38,71m-5.51-8v.79a3.26,3.26,0,0,1-.06.5.67.67,0,0,0,0,.18A5.51,5.51,0,0,0,39.38,70a5.8,5.8,0,0,0,3.95-1.58l27.8-27.71a23.27,23.27,0,0,0,6.8-16.55,22.35,22.35,0,0,0-6.72-16.3A23.57,23.57,0,0,0,39.87,6.22l-.32.25-.31-.25A23.44,23.44,0,0,0,7.81,40.92l7.72,7.72a5.46,5.46,0,0,0,3.94,1.57,2,2,0,0,0,.46,0l.8-.38-.07.87a5.6,5.6,0,0,0,1.57,4.58,5.45,5.45,0,0,0,3.85,1.57,2,2,0,0,0,.46,0l.72-.34v.79a2.45,2.45,0,0,1-.06.5,1.68,1.68,0,0,0,0,.18,5.11,5.11,0,0,0,1.64,3.84,5.44,5.44,0,0,0,3.87,1.58,2,2,0,0,0,.46,0Zm5.64,5.93a4,4,0,0,1-2.8-1.18,4.27,4.27,0,0,1-1.09-2.85,3.61,3.61,0,0,1,1.2-2.78L50.53,48.38a.76.76,0,0,0,.23-.54.8.8,0,0,0-.23-.55.77.77,0,0,0-1.1,0L35.7,61a3.92,3.92,0,0,1-5.6,0,3.88,3.88,0,0,1-1.18-2.75,3.65,3.65,0,0,1,1.2-2.79L43.83,41.77a.74.74,0,0,0,0-1.09.76.76,0,0,0-1.09,0L29,54.42a3.93,3.93,0,0,1-2.76,1.17,3.6,3.6,0,0,1-2.78-1.2,3.91,3.91,0,0,1,0-5.58L37.22,35.08A.77.77,0,0,0,36.13,34L22.4,47.72a3.92,3.92,0,0,1-5.6,0l-.86-.86h.28a3.88,3.88,0,0,1,.66-4.74l9.59-9.86h.23A8.33,8.33,0,0,0,33,29.76l6.86-6.86.35.32a14.45,14.45,0,0,0,7.54,3.91,9.56,9.56,0,0,0,8.17-3,.77.77,0,0,0-1.1-1.08A7.82,7.82,0,0,1,48,25.63a14.29,14.29,0,0,1-7.58-4.34.79.79,0,0,0-.61-.24.61.61,0,0,0-.45.2l-7.41,7.42a6.65,6.65,0,0,1-5.56,2H26a6.32,6.32,0,0,1-3.63-1.78c-1.29-1.5-.77-2.43-.35-2.85L39.11,9A21.88,21.88,0,0,1,76.45,24.45a21.3,21.3,0,0,1-6.33,15.46L42.31,67.72a4,4,0,0,1-2.8,1.18M50,46a1.78,1.78,0,0,1,1.26,3.05L37.5,62.83a2.62,2.62,0,0,0-.88,2A3.27,3.27,0,0,0,37.44,67a2.92,2.92,0,0,0,4.16,0L69.41,39.2a20.3,20.3,0,0,0,6-14.74A20.86,20.86,0,0,0,39.82,9.7L22.74,26.78c-.13.13-.47.47.37,1.46a5.42,5.42,0,0,0,3,1.46h.31A5.71,5.71,0,0,0,31.21,28l7.39-7.38A1.55,1.55,0,0,1,39.74,20a1.81,1.81,0,0,1,1.37.54,13.4,13.4,0,0,0,7,4.06,6.88,6.88,0,0,0,6-2.26,1.8,1.8,0,0,1,3,1.25,1.75,1.75,0,0,1-.54,1.26,10.63,10.63,0,0,1-9,3.23,15,15,0,0,1-7.72-3.84l-6.19,6.19a9.27,9.27,0,0,1-6.85,2.81L17.6,42.82a2.92,2.92,0,0,0-.08,4.12l.47.46a2.92,2.92,0,0,0,3.7-.39L35.42,33.28a1.78,1.78,0,0,1,2.51,0,1.73,1.73,0,0,1,0,2.51L24.2,49.52a2.93,2.93,0,0,0,0,4.18,2.63,2.63,0,0,0,2.05.89,2.91,2.91,0,0,0,2.05-.89L42,40a1.78,1.78,0,0,1,2.51,0,1.74,1.74,0,0,1,0,2.52L30.81,56.22a2.59,2.59,0,0,0-.88,2.05,2.88,2.88,0,0,0,.88,2,2.93,2.93,0,0,0,4.18,0L48.72,46.58A1.78,1.78,0,0,1,50,46M14,44.82,9.07,39.91l.29-.29-.29.29A21.88,21.88,0,0,1,38,7.14l.47.37-.44.4c-1,.93-12.26,12.19-17.06,17-1.43,1.43-1.26,3.44.43,5.13a7.46,7.46,0,0,0,2.57,1.6l.72.28-9,9a5.52,5.52,0,0,0-1.49,2.9ZM9.77,39.19l3.59,3.58a6.46,6.46,0,0,1,1.55-2.54l8-8a8.15,8.15,0,0,1-2.22-1.53c-2.09-2.09-2.26-4.72-.43-6.55,4.41-4.42,14.31-14.3,16.66-16.59A20.88,20.88,0,0,0,9.77,39.19"/></g></g></svg>