<svg xmlns="http://www.w3.org/2000/svg" viewBox="0 0 136.96 23.68"><defs><style>.cls-1{fill:#fd5d60;}</style></defs><title>Asset 2</title><g id="Layer_2" data-name="Layer 2"><g id="Layer_1-2" data-name="Layer 1"><path class="cls-1" d="M4.73,23.64H0v-10a7.75,7.75,0,1,1,15.49,0v2.32H10.76V13.61a3,3,0,1,0-6,0Z"/><path class="cls-1" d="M126.2,23.64h-4.73v-10a7.75,7.75,0,1,1,15.49,0v2.32h-4.73V13.61a3,3,0,1,0-6,0Z"/><path class="cls-1" d="M22.18,15.9A4.87,4.87,0,0,0,23.3,19,3.42,3.42,0,0,0,26,20.12a3.83,3.83,0,0,0,2-.5A2.28,2.28,0,0,0,29,18.22h4.64a7.46,7.46,0,0,1-2.77,4,7.79,7.79,0,0,1-4.7,1.42q-8.51,0-8.51-9.26a10.72,10.72,0,0,1,.56-3.56,7.77,7.77,0,0,1,1.6-2.74,7,7,0,0,1,2.58-1.74,9.45,9.45,0,0,1,3.49-.61,7.18,7.18,0,0,1,6,2.53c1.34,1.68,2,4.21,2,7.6Zm7.09-2.83a5.09,5.09,0,0,0-.33-1.65,3.53,3.53,0,0,0-.78-1.17,3.05,3.05,0,0,0-1.11-.69,3.71,3.71,0,0,0-1.28-.23,3.18,3.18,0,0,0-2.33,1,4.18,4.18,0,0,0-1.12,2.75Z"/><path class="cls-1" d="M50.77,17.08a7.2,7.2,0,0,1-.85,2.69,7.35,7.35,0,0,1-1.71,2.08,8.12,8.12,0,0,1-2.37,1.35,8.41,8.41,0,0,1-2.88.48,8.52,8.52,0,0,1-3.17-.57,6.56,6.56,0,0,1-2.47-1.73,8.07,8.07,0,0,1-1.61-2.87,12.63,12.63,0,0,1-.57-4,12.14,12.14,0,0,1,.57-3.94,7.15,7.15,0,0,1,1.61-2.72,6.57,6.57,0,0,1,2.51-1.57,10.45,10.45,0,0,1,6.29-.07A6.9,6.9,0,0,1,48.5,7.54a6.16,6.16,0,0,1,1.61,2.07,7.36,7.36,0,0,1,.69,2.7H46.28a3.13,3.13,0,0,0-1.06-2.06,3.22,3.22,0,0,0-2.16-.74,3.76,3.76,0,0,0-1.35.24,2.64,2.64,0,0,0-1.09.81,4.23,4.23,0,0,0-.74,1.52,8.25,8.25,0,0,0-.28,2.33,7,7,0,0,0,1,4.15,2.84,2.84,0,0,0,2.31,1.35,3.57,3.57,0,0,0,2.25-.72,2.92,2.92,0,0,0,1.07-2.11Z"/><path class="cls-1" d="M62.73,23.23a7,7,0,0,1-.28-1.52,5.47,5.47,0,0,1-2.1,1.43,8,8,0,0,1-3.05.54,6,6,0,0,1-4.3-1.3A4.42,4.42,0,0,1,51.63,19a6.2,6.2,0,0,1,.59-2.92,4.26,4.26,0,0,1,1.63-1.71,7.75,7.75,0,0,1,2.47-.92c1-.19,2-.37,3.13-.53a6.07,6.07,0,0,0,2.28-.64,1.47,1.47,0,0,0,.59-1.3,1.44,1.44,0,0,0-.78-1.29,4,4,0,0,0-2.09-.47,3,3,0,0,0-2.23.69,3.2,3.2,0,0,0-.85,1.83H52.19a7.53,7.53,0,0,1,.43-2.42,4.55,4.55,0,0,1,1.28-1.9A5.92,5.92,0,0,1,56.2,6.2a12.2,12.2,0,0,1,3.45-.43,11.23,11.23,0,0,1,3.41.45,5.5,5.5,0,0,1,2.25,1.3,4.86,4.86,0,0,1,1.22,2.11,9.64,9.64,0,0,1,.38,2.85V23.23Zm-.31-8.33a2.42,2.42,0,0,1-1,.55,17.67,17.67,0,0,1-1.9.45,6.5,6.5,0,0,0-2.67,1,2,2,0,0,0-.72,1.69c0,1.27.72,1.9,2.18,1.9a4.21,4.21,0,0,0,1.6-.29,4.13,4.13,0,0,0,1.28-.79,4.06,4.06,0,0,0,.87-1.18,3.22,3.22,0,0,0,.33-1.43Z"/><path class="cls-1" d="M97.34,23.23l0-2.07a5.17,5.17,0,0,1-4.73,2.52,7.1,7.1,0,0,1-3-.62,6.31,6.31,0,0,1-2.31-1.8,8.43,8.43,0,0,1-1.52-2.87,12.29,12.29,0,0,1-.56-3.83A12.76,12.76,0,0,1,85.67,11,8.31,8.31,0,0,1,87,8.23a6.1,6.1,0,0,1,2.19-1.82,6.68,6.68,0,0,1,3-.64,5.9,5.9,0,0,1,5,2.67V0h4.43V23.23ZM93.6,20a3.36,3.36,0,0,0,2.72-1.35,5.49,5.49,0,0,0,1.09-3.53q0-5.54-3.77-5.53t-3.87,5.26a6,6,0,0,0,1.07,3.71A3.29,3.29,0,0,0,93.6,20"/><path class="cls-1" d="M114.28,23.23a7,7,0,0,1-.28-1.52,5.44,5.44,0,0,1-2.11,1.43,7.93,7.93,0,0,1-3,.54,6.09,6.09,0,0,1-4.31-1.3A4.42,4.42,0,0,1,103.18,19a6.08,6.08,0,0,1,.59-2.92,4.31,4.31,0,0,1,1.62-1.71,7.84,7.84,0,0,1,2.47-.92c1-.19,2-.37,3.13-.53a6.07,6.07,0,0,0,2.28-.64,1.44,1.44,0,0,0,.59-1.3,1.44,1.44,0,0,0-.78-1.29A3.92,3.92,0,0,0,111,9.23a3,3,0,0,0-2.23.69,3.19,3.19,0,0,0-.84,1.83h-4.19a8.12,8.12,0,0,1,.43-2.42,4.74,4.74,0,0,1,1.28-1.9,6.07,6.07,0,0,1,2.3-1.23,12.32,12.32,0,0,1,3.46-.43,11.27,11.27,0,0,1,3.41.45,5.4,5.4,0,0,1,2.24,1.3,4.78,4.78,0,0,1,1.23,2.11,10,10,0,0,1,.38,2.85V23.23ZM114,14.9a2.47,2.47,0,0,1-1,.55,17.09,17.09,0,0,1-1.9.45,6.38,6.38,0,0,0-2.66,1,2.05,2.05,0,0,0-.73,1.69c0,1.27.73,1.9,2.18,1.9a4.21,4.21,0,0,0,2.89-1.08,4,4,0,0,0,.86-1.18,3.22,3.22,0,0,0,.33-1.43Z"/><path class="cls-1" d="M75.92,23.3a7.53,7.53,0,0,1-7.35-7.68V6.42h3.86v9.2a3.5,3.5,0,1,0,7,0V6.42h3.86v9.2a7.53,7.53,0,0,1-7.34,7.68"/></g></g></svg>